<?xml version="1.0" encoding="UTF-8" standalone="no"?>
<!DOCTYPE svg PUBLIC "-//W3C//DTD SVG 1.1//EN" "http://www.w3.org/Graphics/SVG/1.1/DTD/svg11.dtd">
<svg width="100%" height="100%" viewBox="0 0 226 96" version="1.1" xmlns="http://www.w3.org/2000/svg" xmlns:xlink="http://www.w3.org/1999/xlink" xml:space="preserve" xmlns:serif="http://www.serif.com/" style="fill-rule:evenodd;clip-rule:evenodd;stroke-linejoin:round;stroke-miterlimit:2;">
    <g transform="matrix(1,0,0,1,-287,-252.238)">
        <g transform="matrix(1,0,0,1,19.5085,271)">
            <path d="M133.7,12.855L132.965,12.855L128.568,17.909L125.326,21.807L124.748,22.385L124.171,22.962C122.544,24.589 120.583,25.866 118.882,26.827C117.256,27.788 115.2,28.798 112.909,29.315L110.344,30.066L110.344,30.597L117.995,30.597L117.995,73.141C117.995,78.316 119.289,82.086 121.876,84.452C124.538,86.817 128.234,88 132.965,88C136.661,88 139.803,87.261 142.391,85.782C144.978,84.304 147.011,82.308 148.489,79.794L147.381,78.686C146.198,80.016 145.015,81.088 143.832,81.901C142.649,82.64 141.282,83.01 139.729,83.01C137.955,83.01 136.477,82.345 135.294,81.014C134.185,79.683 133.63,77.724 133.63,75.137L133.63,27.71L133.7,27.71L133.7,12.855ZM10.534,85.625C14.748,86.66 18.888,87.178 22.954,87.178C31.973,87.178 38.922,85.145 43.801,81.079C48.754,76.939 51.23,71.616 51.23,65.111C51.23,59.567 49.678,55.057 46.573,51.583C43.468,48.034 38.367,44.708 31.27,41.603L26.169,39.385C22.325,37.611 19.405,35.615 17.409,33.397C15.413,31.106 14.415,28.075 14.415,24.305C14.415,20.608 15.709,17.688 18.296,15.544C20.884,13.327 24.063,12.218 27.833,12.218C29.089,12.218 30.124,12.292 30.938,12.44C31.751,12.513 32.638,12.698 33.599,12.994C35.225,13.438 36.667,14.214 37.923,15.323C39.18,16.358 40.437,18.169 41.694,20.756L46.24,29.073L47.349,29.073L48.014,15.766C45.427,13.992 42.359,12.587 38.811,11.552C35.336,10.518 31.64,10 27.722,10C22.325,10 17.594,10.85 13.528,12.55C9.536,14.251 6.395,16.69 4.103,19.869C1.885,23.048 0.776,26.818 0.776,31.18C0.776,37.241 2.55,42.12 6.099,45.817C9.721,49.439 14.711,52.655 21.069,55.464L25.615,57.46C29.533,59.382 32.379,61.378 34.153,63.448C35.928,65.444 36.815,68.253 36.815,71.875C36.815,75.719 35.484,78.861 32.823,81.301C30.235,83.74 26.687,84.96 22.177,84.96C20.477,84.96 18.925,84.849 17.52,84.627C16.19,84.332 14.785,83.814 13.307,83.075C11.237,82.188 9.61,80.968 8.427,79.416C7.245,77.789 6.136,75.941 5.101,73.871L1.663,66.663L0.554,66.663L0,81.744C2.809,83.371 6.321,84.664 10.534,85.625ZM64.394,85.182C66.834,86.29 69.495,86.845 72.378,86.845C76.222,86.845 79.549,86.18 82.358,84.849C85.241,83.444 87.903,81.744 90.342,79.748L91.34,86.29L110.745,85.182L110.745,84.073L109.636,83.74C108.158,83.149 107.197,82.409 106.753,81.522C106.31,80.635 106.088,79.379 106.088,77.752L106.088,47.702L106.421,31.956L105.312,30.847L85.906,35.061L85.906,36.169L87.015,36.502C88.42,36.798 89.381,37.315 89.898,38.055C90.416,38.72 90.675,39.903 90.675,41.603L90.231,77.752C88.605,78.935 86.978,79.822 85.352,80.414C83.726,81.005 81.878,81.301 79.808,81.301C77.738,81.301 76.001,80.746 74.596,79.637C73.265,78.528 72.6,76.791 72.6,74.426L72.6,47.702L73.154,31.956L72.046,30.847L52.197,34.728L52.197,35.837L53.527,36.28C54.784,36.576 55.708,37.094 56.3,37.833C56.891,38.572 57.187,39.792 57.187,41.492L56.854,69.99C56.78,74.056 57.408,77.346 58.739,79.859C60.144,82.299 62.029,84.073 64.394,85.182ZM158.919,85.182C161.358,86.29 164.019,86.845 166.902,86.845C170.747,86.845 174.073,86.18 176.882,84.849C179.765,83.444 182.427,81.744 184.866,79.748L185.864,86.29L205.27,85.182L205.27,84.073L204.161,83.74C202.682,83.149 201.721,82.409 201.278,81.522C200.834,80.635 200.612,79.379 200.612,77.752L200.612,47.702L200.945,31.956L199.836,30.847L180.431,35.061L180.431,36.169L181.54,36.502C182.944,36.798 183.905,37.315 184.423,38.055C184.94,38.72 185.199,39.903 185.199,41.603L184.755,77.752C183.129,78.935 181.503,79.822 179.876,80.414C178.25,81.005 176.402,81.301 174.332,81.301C172.262,81.301 170.525,80.746 169.12,79.637C167.79,78.528 167.124,76.791 167.124,74.426L167.124,47.702L167.679,31.956L166.57,30.847L146.721,34.728L146.721,35.837L148.052,36.28C149.308,36.576 150.232,37.094 150.824,37.833C151.415,38.572 151.711,39.792 151.711,41.492L151.378,69.99C151.304,74.056 151.933,77.346 153.263,79.859C154.668,82.299 156.553,84.073 158.919,85.182ZM206.421,85.182L206.421,84.073L208.084,83.629C209.563,83.186 210.561,82.52 211.078,81.633C211.669,80.746 211.965,79.6 211.965,78.196L211.965,43.488C211.965,41.862 211.669,40.679 211.078,39.94C210.561,39.126 209.563,38.572 208.084,38.276L206.421,37.833L206.421,36.724L225.493,30.292L226.602,31.401L227.6,40.938L227.6,41.825C228.635,39.755 229.966,37.87 231.592,36.169C233.293,34.395 235.141,32.954 237.137,31.845C239.206,30.736 241.239,30.182 243.235,30.182C246.045,30.182 248.188,30.958 249.667,32.51C251.145,34.063 251.885,36.022 251.885,38.387C251.885,40.901 251.145,42.86 249.667,44.264C248.262,45.595 246.562,46.26 244.566,46.26C241.461,46.26 238.726,44.708 236.36,41.603L236.139,41.381C235.399,40.346 234.549,39.792 233.588,39.718C232.627,39.57 231.74,40.014 230.927,41.048C230.188,41.714 229.559,42.527 229.042,43.488C228.598,44.375 228.155,45.41 227.711,46.593L227.711,77.53C227.711,80.487 229.005,82.336 231.592,83.075L235.141,84.073L235.141,85.182L206.421,85.182ZM290.449,33.176C287.049,31.18 282.946,30.182 278.141,30.182C273.557,30.182 269.159,31.29 264.945,33.508C260.805,35.726 257.405,38.979 254.743,43.266C252.082,47.48 250.751,52.618 250.751,58.679C250.751,64.52 251.897,69.547 254.189,73.76C256.481,77.974 259.659,81.227 263.725,83.518C267.791,85.736 272.448,86.845 277.697,86.845C283.02,86.845 287.566,85.699 291.336,83.407C295.18,81.116 298.248,77.937 300.54,73.871L299.431,72.873C297.435,75.165 295.291,76.902 293,78.085C290.708,79.268 287.714,79.859 284.018,79.859C278.547,79.859 274.407,78.122 271.598,74.647C268.863,71.099 267.458,65.333 267.385,57.349L300.429,57.349C300.651,56.684 300.799,55.944 300.873,55.131C300.947,54.244 300.983,53.394 300.983,52.581C300.983,48.293 300.059,44.486 298.211,41.159C296.437,37.759 293.85,35.097 290.449,33.176ZM272.264,34.395C273.816,33.065 275.664,32.399 277.808,32.399C281.578,32.399 284.129,34.173 285.459,37.722C286.79,41.27 287.086,47.073 286.346,55.131L267.385,55.131C267.458,49.143 267.902,44.523 268.715,41.27C269.602,37.944 270.785,35.652 272.264,34.395Z" style="fill:white;"/>
        </g>
        <g transform="matrix(1,0,0,1,287,251.995)">
            <path d="M0,50.397C0,49.927 0.327,49.521 0.786,49.42L224.786,0.266C225.409,0.13 226,0.605 226,1.243L226,47.541C226,48.014 225.669,48.422 225.206,48.52L1.206,95.746C0.585,95.877 0,95.403 0,94.767L0,50.397Z" style="fill:white;fill-rule:nonzero;"/>
        </g>
    </g>
</svg>
