<?xml version="1.0" encoding="UTF-8" standalone="no"?>
<!DOCTYPE svg PUBLIC "-//W3C//DTD SVG 1.1//EN" "http://www.w3.org/Graphics/SVG/1.1/DTD/svg11.dtd">
<svg width="100%" height="100%" viewBox="0 0 301 78" version="1.1" xmlns="http://www.w3.org/2000/svg" xmlns:xlink="http://www.w3.org/1999/xlink" xml:space="preserve" xmlns:serif="http://www.serif.com/" style="fill-rule:evenodd;clip-rule:evenodd;stroke-linejoin:round;stroke-miterlimit:2;">
    <g transform="matrix(1,0,0,1,-249.508,-261)">
        <g transform="matrix(1,0,0,1,19.5085,271)">
            <path d="M133.7,12.855L132.965,12.855L128.568,17.909L125.326,21.807L124.748,22.385L124.171,22.962C122.544,24.589 120.583,25.866 118.882,26.827C117.256,27.788 115.2,28.798 112.909,29.315L110.344,30.066L110.344,30.597L117.995,30.597L117.995,73.141C117.995,78.316 119.289,82.086 121.876,84.452C124.538,86.817 128.234,88 132.965,88C136.661,88 139.803,87.261 142.391,85.782C144.978,84.304 147.011,82.308 148.489,79.794L147.381,78.686C146.198,80.016 145.015,81.088 143.832,81.901C142.649,82.64 141.282,83.01 139.729,83.01C137.955,83.01 136.477,82.345 135.294,81.014C134.185,79.683 133.63,77.724 133.63,75.137L133.63,27.71L133.7,27.71L133.7,12.855ZM10.534,85.625C14.748,86.66 18.888,87.178 22.954,87.178C31.973,87.178 38.922,85.145 43.801,81.079C48.754,76.939 51.23,71.616 51.23,65.111C51.23,59.567 49.678,55.057 46.573,51.583C43.468,48.034 38.367,44.708 31.27,41.603L26.169,39.385C22.325,37.611 19.405,35.615 17.409,33.397C15.413,31.106 14.415,28.075 14.415,24.305C14.415,20.608 15.709,17.688 18.296,15.544C20.884,13.327 24.063,12.218 27.833,12.218C29.089,12.218 30.124,12.292 30.938,12.44C31.751,12.513 32.638,12.698 33.599,12.994C35.225,13.438 36.667,14.214 37.923,15.323C39.18,16.358 40.437,18.169 41.694,20.756L46.24,29.073L47.349,29.073L48.014,15.766C45.427,13.992 42.359,12.587 38.811,11.552C35.336,10.518 31.64,10 27.722,10C22.325,10 17.594,10.85 13.528,12.55C9.536,14.251 6.395,16.69 4.103,19.869C1.885,23.048 0.776,26.818 0.776,31.18C0.776,37.241 2.55,42.12 6.099,45.817C9.721,49.439 14.711,52.655 21.069,55.464L25.615,57.46C29.533,59.382 32.379,61.378 34.153,63.448C35.928,65.444 36.815,68.253 36.815,71.875C36.815,75.719 35.484,78.861 32.823,81.301C30.235,83.74 26.687,84.96 22.177,84.96C20.477,84.96 18.925,84.849 17.52,84.627C16.19,84.332 14.785,83.814 13.307,83.075C11.237,82.188 9.61,80.968 8.427,79.416C7.245,77.789 6.136,75.941 5.101,73.871L1.663,66.663L0.554,66.663L0,81.744C2.809,83.371 6.321,84.664 10.534,85.625ZM64.394,85.182C66.834,86.29 69.495,86.845 72.378,86.845C76.222,86.845 79.549,86.18 82.358,84.849C85.241,83.444 87.903,81.744 90.342,79.748L91.34,86.29L110.745,85.182L110.745,84.073L109.636,83.74C108.158,83.149 107.197,82.409 106.753,81.522C106.31,80.635 106.088,79.379 106.088,77.752L106.088,47.702L106.421,31.956L105.312,30.847L85.906,35.061L85.906,36.169L87.015,36.502C88.42,36.798 89.381,37.315 89.898,38.055C90.416,38.72 90.675,39.903 90.675,41.603L90.231,77.752C88.605,78.935 86.978,79.822 85.352,80.414C83.726,81.005 81.878,81.301 79.808,81.301C77.738,81.301 76.001,80.746 74.596,79.637C73.265,78.528 72.6,76.791 72.6,74.426L72.6,47.702L73.154,31.956L72.046,30.847L52.197,34.728L52.197,35.837L53.527,36.28C54.784,36.576 55.708,37.094 56.3,37.833C56.891,38.572 57.187,39.792 57.187,41.492L56.854,69.99C56.78,74.056 57.408,77.346 58.739,79.859C60.144,82.299 62.029,84.073 64.394,85.182ZM158.919,85.182C161.358,86.29 164.019,86.845 166.902,86.845C170.747,86.845 174.073,86.18 176.882,84.849C179.765,83.444 182.427,81.744 184.866,79.748L185.864,86.29L205.27,85.182L205.27,84.073L204.161,83.74C202.682,83.149 201.721,82.409 201.278,81.522C200.834,80.635 200.612,79.379 200.612,77.752L200.612,47.702L200.945,31.956L199.836,30.847L180.431,35.061L180.431,36.169L181.54,36.502C182.944,36.798 183.905,37.315 184.423,38.055C184.94,38.72 185.199,39.903 185.199,41.603L184.755,77.752C183.129,78.935 181.503,79.822 179.876,80.414C178.25,81.005 176.402,81.301 174.332,81.301C172.262,81.301 170.525,80.746 169.12,79.637C167.79,78.528 167.124,76.791 167.124,74.426L167.124,47.702L167.679,31.956L166.57,30.847L146.721,34.728L146.721,35.837L148.052,36.28C149.308,36.576 150.232,37.094 150.824,37.833C151.415,38.572 151.711,39.792 151.711,41.492L151.378,69.99C151.304,74.056 151.933,77.346 153.263,79.859C154.668,82.299 156.553,84.073 158.919,85.182ZM206.421,85.182L206.421,84.073L208.084,83.629C209.563,83.186 210.561,82.52 211.078,81.633C211.669,80.746 211.965,79.6 211.965,78.196L211.965,43.488C211.965,41.862 211.669,40.679 211.078,39.94C210.561,39.126 209.563,38.572 208.084,38.276L206.421,37.833L206.421,36.724L225.493,30.292L226.602,31.401L227.6,40.938L227.6,41.825C228.635,39.755 229.966,37.87 231.592,36.169C233.293,34.395 235.141,32.954 237.137,31.845C239.206,30.736 241.239,30.182 243.235,30.182C246.045,30.182 248.188,30.958 249.667,32.51C251.145,34.063 251.885,36.022 251.885,38.387C251.885,40.901 251.145,42.86 249.667,44.264C248.262,45.595 246.562,46.26 244.566,46.26C241.461,46.26 238.726,44.708 236.36,41.603L236.139,41.381C235.399,40.346 234.549,39.792 233.588,39.718C232.627,39.57 231.74,40.014 230.927,41.048C230.188,41.714 229.559,42.527 229.042,43.488C228.598,44.375 228.155,45.41 227.711,46.593L227.711,77.53C227.711,80.487 229.005,82.336 231.592,83.075L235.141,84.073L235.141,85.182L206.421,85.182ZM290.449,33.176C287.049,31.18 282.946,30.182 278.141,30.182C273.557,30.182 269.159,31.29 264.945,33.508C260.805,35.726 257.405,38.979 254.743,43.266C252.082,47.48 250.751,52.618 250.751,58.679C250.751,64.52 251.897,69.547 254.189,73.76C256.481,77.974 259.659,81.227 263.725,83.518C267.791,85.736 272.448,86.845 277.697,86.845C283.02,86.845 287.566,85.699 291.336,83.407C295.18,81.116 298.248,77.937 300.54,73.871L299.431,72.873C297.435,75.165 295.291,76.902 293,78.085C290.708,79.268 287.714,79.859 284.018,79.859C278.547,79.859 274.407,78.122 271.598,74.647C268.863,71.099 267.458,65.333 267.385,57.349L300.429,57.349C300.651,56.684 300.799,55.944 300.873,55.131C300.947,54.244 300.983,53.394 300.983,52.581C300.983,48.293 300.059,44.486 298.211,41.159C296.437,37.759 293.85,35.097 290.449,33.176ZM272.264,34.395C273.816,33.065 275.664,32.399 277.808,32.399C281.578,32.399 284.129,34.173 285.459,37.722C286.79,41.27 287.086,47.073 286.346,55.131L267.385,55.131C267.458,49.143 267.902,44.523 268.715,41.27C269.602,37.944 270.785,35.652 272.264,34.395Z" style="fill:white;"/>
        </g>
        <g transform="matrix(1,0,0,1,249.508,251.192)">
            <path d="M133.7,12.664L132.965,12.664L128.568,17.717L125.326,21.615L124.748,22.193L124.171,22.77C122.544,24.397 120.583,25.674 118.882,26.635C117.256,27.596 115.2,28.606 112.909,29.123L110.344,29.874L110.344,30.405L117.995,30.405L117.995,72.949C117.995,78.124 119.289,81.894 121.876,84.26C124.538,86.625 128.234,87.808 132.965,87.808C136.661,87.808 139.803,87.069 142.391,85.59C144.978,84.112 147.011,82.116 148.489,79.602L147.381,78.494C146.198,79.824 145.015,80.896 143.832,81.709C142.649,82.449 141.282,82.818 139.729,82.818C137.955,82.818 136.477,82.153 135.294,80.822C134.185,79.492 133.63,77.533 133.63,74.945L133.63,27.518L133.7,27.518L133.7,12.664ZM10.534,85.433C14.748,86.468 18.888,86.986 22.954,86.986C31.973,86.986 38.922,84.953 43.801,80.887C48.754,76.747 51.23,71.425 51.23,64.919C51.23,59.375 49.678,54.865 46.573,51.391C43.468,47.843 38.367,44.516 31.27,41.411L26.169,39.193C22.325,37.419 19.405,35.423 17.409,33.205C15.413,30.914 14.415,27.883 14.415,24.113C14.415,20.416 15.709,17.496 18.296,15.352C20.884,13.135 24.063,12.026 27.833,12.026C29.089,12.026 30.124,12.1 30.938,12.248C31.751,12.322 32.638,12.506 33.599,12.802C35.225,13.246 36.667,14.022 37.923,15.131C39.18,16.166 40.437,17.977 41.694,20.564L46.24,28.881L47.349,28.881L48.014,15.574C45.427,13.8 42.359,12.396 38.811,11.361C35.336,10.326 31.64,9.808 27.722,9.808C22.325,9.808 17.594,10.658 13.528,12.359C9.536,14.059 6.395,16.498 4.103,19.677C1.885,22.856 0.776,26.626 0.776,30.988C0.776,37.049 2.55,41.929 6.099,45.625C9.721,49.247 14.711,52.463 21.069,55.272L25.615,57.268C29.533,59.19 32.379,61.186 34.153,63.256C35.928,65.252 36.815,68.061 36.815,71.683C36.815,75.527 35.484,78.669 32.823,81.109C30.235,83.548 26.687,84.768 22.177,84.768C20.477,84.768 18.925,84.657 17.52,84.435C16.19,84.14 14.785,83.622 13.307,82.883C11.237,81.996 9.61,80.776 8.427,79.224C7.245,77.597 6.136,75.749 5.101,73.679L1.663,66.472L0.554,66.472L0,81.552C2.809,83.179 6.321,84.472 10.534,85.433ZM64.394,84.99C66.834,86.099 69.495,86.653 72.378,86.653C76.222,86.653 79.549,85.988 82.358,84.657C85.241,83.253 87.903,81.552 90.342,79.556L91.34,86.099L110.745,84.99L110.745,83.881L109.636,83.548C108.158,82.957 107.197,82.218 106.753,81.33C106.31,80.443 106.088,79.187 106.088,77.56L106.088,47.51L106.421,31.764L105.312,30.655L85.906,34.869L85.906,35.978L87.015,36.31C88.42,36.606 89.381,37.123 89.898,37.863C90.416,38.528 90.675,39.711 90.675,41.411L90.231,77.56C88.605,78.743 86.978,79.63 85.352,80.222C83.726,80.813 81.878,81.109 79.808,81.109C77.738,81.109 76.001,80.554 74.596,79.445C73.265,78.337 72.6,76.599 72.6,74.234L72.6,47.51L73.154,31.764L72.046,30.655L52.197,34.536L52.197,35.645L53.527,36.088C54.784,36.384 55.708,36.902 56.3,37.641C56.891,38.38 57.187,39.6 57.187,41.3L56.854,69.798C56.78,73.864 57.408,77.154 58.739,79.667C60.144,82.107 62.029,83.881 64.394,84.99ZM158.919,84.99C161.358,86.099 164.019,86.653 166.902,86.653C170.747,86.653 174.073,85.988 176.882,84.657C179.765,83.253 182.427,81.552 184.866,79.556L185.864,86.099L205.27,84.99L205.27,83.881L204.161,83.548C202.682,82.957 201.721,82.218 201.278,81.33C200.834,80.443 200.612,79.187 200.612,77.56L200.612,47.51L200.945,31.764L199.836,30.655L180.431,34.869L180.431,35.978L181.54,36.31C182.944,36.606 183.905,37.123 184.423,37.863C184.94,38.528 185.199,39.711 185.199,41.411L184.755,77.56C183.129,78.743 181.503,79.63 179.876,80.222C178.25,80.813 176.402,81.109 174.332,81.109C172.262,81.109 170.525,80.554 169.12,79.445C167.79,78.337 167.124,76.599 167.124,74.234L167.124,47.51L167.679,31.764L166.57,30.655L146.721,34.536L146.721,35.645L148.052,36.088C149.308,36.384 150.232,36.902 150.824,37.641C151.415,38.38 151.711,39.6 151.711,41.3L151.378,69.798C151.304,73.864 151.933,77.154 153.263,79.667C154.668,82.107 156.553,83.881 158.919,84.99ZM206.421,84.99L206.421,83.881L208.084,83.437C209.563,82.994 210.561,82.328 211.078,81.441C211.669,80.554 211.965,79.408 211.965,78.004L211.965,43.296C211.965,41.67 211.669,40.487 211.078,39.748C210.561,38.935 209.563,38.38 208.084,38.084L206.421,37.641L206.421,36.532L225.493,30.101L226.602,31.209L227.6,40.746L227.6,41.633C228.635,39.563 229.966,37.678 231.592,35.978C233.293,34.203 235.141,32.762 237.137,31.653C239.206,30.544 241.239,29.99 243.235,29.99C246.045,29.99 248.188,30.766 249.667,32.318C251.145,33.871 251.885,35.83 251.885,38.195C251.885,40.709 251.145,42.668 249.667,44.072C248.262,45.403 246.562,46.068 244.566,46.068C241.461,46.068 238.726,44.516 236.36,41.411L236.139,41.189C235.399,40.154 234.549,39.6 233.588,39.526C232.627,39.378 231.74,39.822 230.927,40.857C230.188,41.522 229.559,42.335 229.042,43.296C228.598,44.183 228.155,45.218 227.711,46.401L227.711,77.339C227.711,80.296 229.005,82.144 231.592,82.883L235.141,83.881L235.141,84.99L206.421,84.99ZM290.449,32.984C287.049,30.988 282.946,29.99 278.141,29.99C273.557,29.99 269.159,31.099 264.945,33.316C260.805,35.534 257.405,38.787 254.743,43.074C252.082,47.288 250.751,52.426 250.751,58.488C250.751,64.328 251.897,69.355 254.189,73.568C256.481,77.782 259.659,81.035 263.725,83.326C267.791,85.544 272.448,86.653 277.697,86.653C283.02,86.653 287.566,85.507 291.336,83.216C295.18,80.924 298.248,77.745 300.54,73.679L299.431,72.681C297.435,74.973 295.291,76.71 293,77.893C290.708,79.076 287.714,79.667 284.018,79.667C278.547,79.667 274.407,77.93 271.598,74.455C268.863,70.907 267.458,65.141 267.385,57.157L300.429,57.157C300.651,56.492 300.799,55.752 300.873,54.939C300.947,54.052 300.983,53.202 300.983,52.389C300.983,48.101 300.059,44.294 298.211,40.967C296.437,37.567 293.85,34.906 290.449,32.984ZM272.264,34.203C273.816,32.873 275.664,32.207 277.808,32.207C281.578,32.207 284.129,33.981 285.459,37.53C286.79,41.078 287.086,46.881 286.346,54.939L267.385,54.939C267.458,48.951 267.902,44.331 268.715,41.078C269.602,37.752 270.785,35.46 272.264,34.203Z"/>
        </g>
        <g transform="matrix(1,0,0,1,249.508,251.192)">
            <path d="M110.309,30.297C110.309,29.826 110.636,29.42 111.096,29.319L157.031,19.313C157.655,19.177 158.244,19.652 158.244,20.29L158.244,28.417C158.244,28.891 157.912,29.299 157.449,29.396L111.513,39.01C110.892,39.14 110.309,38.666 110.309,38.032L110.309,30.297Z" style="fill-rule:nonzero;"/>
        </g>
    </g>
</svg>
